<svg width="48" height="48" viewBox="0 0 48 48" fill="none" xmlns="http://www.w3.org/2000/svg">
<g clip-path="url(#clip0_6_33)">
<rect width="48" height="48" rx="24" fill="#4D4BE7"/>
<path fill-rule="evenodd" clip-rule="evenodd" d="M24 36C30.6274 36 36 30.6274 36 24C36 17.3726 30.6274 12 24 12C17.3726 12 12 17.3726 12 24C12 30.6274 17.3726 36 24 36ZM32.2202 19.2335C31.003 17.1448 28.9928 15.5174 26.4732 14.8422C23.9536 14.1671 21.3991 14.5714 19.3006 15.7717C17.1798 16.9848 15.5248 19.0108 14.8425 21.5573C13.485 26.6233 16.4915 31.8306 21.5575 33.188C22.8889 33.5448 23.2952 32.8579 23.9176 31.8059C24.4231 30.9514 25.0711 29.856 26.4732 28.8831C27.9603 27.8513 29.3902 27.8553 30.5577 27.8586C31.8464 27.8623 32.8153 27.865 33.1883 26.473C33.8706 23.9266 33.4503 21.3444 32.2202 19.2335Z" fill="white"/>
<path fill-rule="evenodd" clip-rule="evenodd" d="M24 36C30.6274 36 36 30.6274 36 24C36 17.3726 30.6274 12 24 12C17.3726 12 12 17.3726 12 24C12 30.6274 17.3726 36 24 36ZM32.2202 19.2335C31.003 17.1448 28.9928 15.5174 26.4732 14.8422C23.9536 14.1671 21.3991 14.5714 19.3006 15.7717C17.1798 16.9848 15.5248 19.0108 14.8425 21.5573C13.485 26.6233 16.4915 31.8306 21.5575 33.188C22.8889 33.5448 23.2952 32.8579 23.9176 31.8059C24.4231 30.9514 25.0711 29.856 26.4732 28.8831C27.9603 27.8513 29.3902 27.8553 30.5577 27.8586C31.8464 27.8623 32.8153 27.865 33.1883 26.473C33.8706 23.9266 33.4503 21.3444 32.2202 19.2335Z" fill="white" fill-opacity="0.5"/>
</g>
<defs>
<clipPath id="clip0_6_33">
<path d="M0 24C0 10.7452 10.7452 0 24 0V0C37.2548 0 48 10.7452 48 24V24C48 37.2548 37.2548 48 24 48V48C10.7452 48 0 37.2548 0 24V24Z" fill="white"/>
</clipPath>
</defs>
</svg>
